<svg width="199" height="35" viewBox="0 0 199 35" fill="none" xmlns="http://www.w3.org/2000/svg">
<g clip-path="url(#clip0_85_4575)">
<g clip-path="url(#clip1_85_4575)">
<mask id="mask0_85_4575" style="mask-type:luminance" maskUnits="userSpaceOnUse" x="0" y="0" width="186" height="33">
<g clip-path="url(#clip2_85_4575)">
<g clip-path="url(#clip3_85_4575)">
<path d="M144.499 2.07432C144.499 0.975054 143.89 0.0839233 143.138 0.0839233C142.386 0.0839233 141.776 0.975054 141.776 2.07432V30.636C141.776 31.7352 142.386 32.6264 143.138 32.6264C143.89 32.6264 144.499 31.7352 144.499 30.636V2.07432Z" fill="white"/>
<g clip-path="url(#clip4_85_4575)">
<g clip-path="url(#clip5_85_4575)">
<g clip-path="url(#clip6_85_4575)">
<g clip-path="url(#clip7_85_4575)">
<path d="M8.63577 16.0922C8.36829 16.0922 8.14114 16.0193 7.95433 15.8736C7.75903 15.7279 7.52551 15.5207 7.25378 15.2521C6.9863 14.988 6.68486 14.6602 6.34944 14.2686C6.22632 14.1138 6.16476 13.9749 6.16476 13.852C6.16476 13.7336 6.22632 13.5947 6.34944 13.4353C6.99479 12.6567 7.58071 12.0853 8.10718 11.721C8.23455 11.63 8.41074 11.5844 8.63577 11.5844C9.34056 11.5844 9.94982 11.3021 10.4636 10.7375C10.9773 10.1684 11.2235 9.2509 11.2023 7.98509C11.1938 6.61911 10.8796 5.66292 10.2598 5.11653C9.64413 4.57014 8.80347 4.29694 7.7378 4.29694H6.99267C6.30486 4.29694 5.83783 4.45403 5.59158 4.76821C5.34108 5.07783 5.21584 5.61056 5.21584 6.3664V23.1953C5.21584 23.5277 5.15215 23.7576 5.02478 23.8851C4.89316 24.0126 4.67238 24.0763 4.36244 24.0763H1.05078C0.740841 24.0763 0.520063 24.0126 0.388445 23.8851C0.261074 23.7576 0.197388 23.5277 0.197388 23.1953V4.63161C0.197388 3.52061 0.292917 2.63955 0.483974 1.98844C0.675032 1.34187 1.04866 0.875165 1.60485 0.588309C2.15679 0.306006 2.96772 0.164856 4.03765 0.164856H7.7378C10.7098 0.164856 12.9112 0.79093 14.342 2.04308C15.7728 3.29067 16.4882 5.20532 16.4882 7.78702C16.4882 9.72216 16.1125 11.2999 15.361 12.5201C14.6095 13.745 13.6351 14.6465 12.4378 15.2248C11.2405 15.803 9.97317 16.0922 8.63577 16.0922ZM27.3276 24.493C25.5741 24.493 24.0499 24.1902 22.7549 23.5846C21.46 22.979 20.4537 22.0365 19.7362 20.757C19.0229 19.4775 18.6663 17.827 18.6663 15.8053C18.6663 12.7728 19.3923 10.478 20.8444 8.92078C22.2921 7.36357 24.2197 6.58496 26.627 6.58496C28.1895 6.58496 29.5141 6.88547 30.601 7.48651C31.6837 8.08754 32.5074 8.91623 33.072 9.97259C33.6367 11.0289 33.9191 12.2333 33.9191 13.5856C33.9191 14.9106 33.6028 15.8349 32.9701 16.3585C32.3375 16.8776 31.4141 17.1372 30.1998 17.1372H23.5319C23.6126 18.2846 24.0032 19.1588 24.7037 19.7598C25.4043 20.3609 26.3553 20.6614 27.5568 20.6614C28.5121 20.6614 29.2764 20.5066 29.8495 20.1969C30.427 19.8919 30.8303 19.6506 31.0596 19.473C31.2549 19.3182 31.4778 19.2453 31.7283 19.2544C31.9236 19.2544 32.2059 19.2977 32.5753 19.3842C32.9404 19.4661 33.3056 19.6187 33.6707 19.8418C33.9297 19.9875 34.0592 20.1878 34.0592 20.4428C34.0592 20.5885 34.0337 20.7934 33.9828 21.0575C33.9488 21.2123 33.8957 21.4377 33.8235 21.7337C33.7514 22.0296 33.658 22.3051 33.5433 22.5601C33.4839 22.683 33.3862 22.7991 33.2504 22.9084C33.0423 23.0632 32.7069 23.2681 32.2441 23.5231C31.7856 23.7826 31.1572 24.008 30.359 24.1993C29.5608 24.3951 28.5503 24.493 27.3276 24.493ZM23.5001 13.7222H28.5695C29.0959 13.7222 29.3592 13.4604 29.3592 12.9368C29.3592 12.1491 29.1299 11.4843 28.6713 10.9424C28.2086 10.4051 27.5165 10.1365 26.5952 10.1365C25.589 10.1365 24.8502 10.4803 24.3789 11.1678C23.9076 11.8599 23.6147 12.7114 23.5001 13.7222ZM45.1405 24.493C43.3913 24.493 41.8671 24.1902 40.5679 23.5846C39.2729 22.979 38.2688 22.0365 37.5555 20.757C36.838 19.4775 36.4792 17.827 36.4792 15.8053C36.4792 12.7728 37.2053 10.478 38.6573 8.92078C40.1093 7.36357 42.0369 6.58496 44.44 6.58496C46.0066 6.58496 47.3313 6.88547 48.414 7.48651C49.4966 8.08754 50.3203 8.91623 50.885 9.97259C51.4497 11.0289 51.732 12.2333 51.732 13.5856C51.732 14.9106 51.4157 15.8349 50.7831 16.3585C50.1547 16.8776 49.2334 17.1372 48.0191 17.1372H41.3512C41.4319 18.2846 41.8225 19.1588 42.523 19.7598C43.2236 20.3609 44.1746 20.6614 45.3762 20.6614C46.3272 20.6614 47.0914 20.5066 47.6688 20.1969C48.242 19.8919 48.6432 19.6506 48.8725 19.473C49.0721 19.3182 49.295 19.2453 49.5412 19.2544C49.7408 19.2544 50.0231 19.2977 50.3882 19.3842C50.7576 19.4661 51.1227 19.6187 51.4836 19.8418C51.7426 19.9875 51.8721 20.1878 51.8721 20.4428C51.8721 20.5885 51.8466 20.7934 51.7957 21.0575C51.766 21.2123 51.715 21.4377 51.6428 21.7337C51.5707 22.0296 51.4773 22.3051 51.3626 22.5601C51.2989 22.683 51.1992 22.7991 51.0633 22.9084C50.8595 23.0632 50.5262 23.2681 50.0634 23.5231C49.6007 23.7826 48.9702 24.008 48.172 24.1993C47.3738 24.3951 46.3633 24.493 45.1405 24.493ZM41.3194 13.7222H46.3888C46.9152 13.7222 47.1785 13.4604 47.1785 12.9368C47.1785 12.1491 46.9471 11.4843 46.4843 10.9424C46.0257 10.4051 45.3337 10.1365 44.4081 10.1365C43.4061 10.1365 42.6695 10.4803 42.1982 11.1678C41.727 11.8599 41.434 12.7114 41.3194 13.7222ZM60.0685 8.93444V10.1707H60.1258C60.907 7.8576 62.3081 6.70107 64.3291 6.70107C64.5881 6.70107 64.8004 6.71473 64.9659 6.74205C65.1315 6.76937 65.244 6.79441 65.3035 6.81718C65.4606 6.87181 65.5391 6.99931 65.5391 7.19965V11.2225C65.5391 11.564 65.3523 11.6573 64.9787 11.5025C64.8555 11.4478 64.6772 11.3909 64.4437 11.3317C64.2102 11.268 63.8854 11.2361 63.4693 11.2361C62.4036 11.2361 61.5694 11.655 60.9665 12.4928C60.3678 13.3352 60.0685 14.478 60.0685 15.9214V23.1953C60.0685 23.5277 60.0027 23.7576 59.8711 23.8851C59.7437 24.0126 59.5229 24.0763 59.2087 24.0763H56.0117C55.6975 24.0763 55.4767 24.0126 55.3494 23.8851C55.2177 23.7576 55.1519 23.5277 55.1519 23.1953V9.2213C55.1519 8.95266 55.205 8.74548 55.3112 8.59978C55.5277 8.29016 55.7888 7.97371 56.0945 7.65042C56.4002 7.32714 56.7759 6.98337 57.2217 6.61911C57.3024 6.55081 57.3852 6.50528 57.4701 6.48251C57.555 6.45974 57.6272 6.44836 57.6866 6.44836C57.831 6.44836 57.9775 6.50528 58.1261 6.61911C58.9837 7.34308 59.5845 7.96005 59.9284 8.47001C60.0218 8.60206 60.0685 8.75687 60.0685 8.93444ZM76.6841 16.0922C76.4167 16.0922 76.1895 16.0193 76.0027 15.8736C75.8074 15.7279 75.5739 15.5207 75.3022 15.2521C75.0347 14.988 74.7332 14.6602 74.3978 14.2686C74.2747 14.1138 74.2131 13.9749 74.2131 13.852C74.2131 13.7336 74.2747 13.5947 74.3978 13.4353C75.0432 12.6567 75.6291 12.0853 76.1555 11.721C76.2829 11.63 76.4591 11.5844 76.6841 11.5844C77.3889 11.5844 77.9982 11.3021 78.5119 10.7375C79.0257 10.1684 79.2719 9.2509 79.2507 7.98509C79.2422 6.61911 78.928 5.66292 78.3081 5.11653C77.6925 4.57014 76.8518 4.29694 75.7862 4.29694H75.041C74.3532 4.29694 73.8862 4.45403 73.64 4.76821C73.3895 5.07783 73.2642 5.61056 73.2642 6.3664V23.1953C73.2642 23.5277 73.2005 23.7576 73.0731 23.8851C72.9415 24.0126 72.7208 24.0763 72.4108 24.0763H69.0991C68.7892 24.0763 68.5684 24.0126 68.4368 23.8851C68.3094 23.7576 68.2458 23.5277 68.2458 23.1953V4.63161C68.2458 3.52061 68.3413 2.63955 68.5323 1.98844C68.7234 1.34187 69.097 0.875165 69.6532 0.588309C70.2052 0.306006 71.0161 0.164856 72.086 0.164856H75.7862C78.7582 0.164856 80.9596 0.79093 82.3904 2.04308C83.8212 3.29067 84.5366 5.20532 84.5366 7.78702C84.5366 9.72216 84.1609 11.2999 83.4094 12.5201C82.6579 13.745 81.6835 14.6465 80.4862 15.2248C79.2889 15.803 78.0215 16.0922 76.6841 16.0922ZM92.4846 8.93444V10.1707H92.5419C93.3189 7.8576 94.72 6.70107 96.7452 6.70107C97.0042 6.70107 97.2165 6.71473 97.382 6.74205C97.5476 6.76937 97.6601 6.79441 97.7196 6.81718C97.8767 6.87181 97.9552 6.99931 97.9552 7.19965V11.2225C97.9552 11.564 97.7684 11.6573 97.3948 11.5025C97.2717 11.4478 97.0933 11.3909 96.8598 11.3317C96.6263 11.268 96.3015 11.2361 95.8854 11.2361C94.8198 11.2361 93.9855 11.655 93.3826 12.4928C92.7839 13.3352 92.4846 14.478 92.4846 15.9214V23.1953C92.4846 23.5277 92.4188 23.7576 92.2872 23.8851C92.1598 24.0126 91.939 24.0763 91.6248 24.0763H88.4214C88.1115 24.0763 87.8929 24.0126 87.7655 23.8851C87.6339 23.7576 87.5681 23.5277 87.5681 23.1953V9.2213C87.5681 8.95266 87.619 8.74548 87.7209 8.59978C87.9417 8.29016 88.2049 7.97371 88.5106 7.65042C88.8163 7.32714 89.192 6.98337 89.6379 6.61911C89.7185 6.55081 89.8013 6.50528 89.8862 6.48251C89.9669 6.45974 90.0391 6.44836 90.1028 6.44836C90.2471 6.44836 90.3915 6.50528 90.5358 6.61911C91.3977 7.34308 92.0006 7.96005 92.3445 8.47001C92.4379 8.60206 92.4846 8.75687 92.4846 8.93444ZM108.075 24.493C106.321 24.493 104.797 24.1902 103.502 23.5846C102.207 22.979 101.203 22.0365 100.49 20.757C99.7724 19.4775 99.4136 17.827 99.4136 15.8053C99.4136 12.7728 100.14 10.478 101.592 8.92078C103.044 7.36357 104.971 6.58496 107.374 6.58496C108.941 6.58496 110.266 6.88547 111.348 7.48651C112.431 8.08754 113.255 8.91623 113.819 9.97259C114.384 11.0289 114.666 12.2333 114.666 13.5856C114.666 14.9106 114.35 15.8349 113.717 16.3585C113.085 16.8776 112.164 17.1372 110.954 17.1372H104.279C104.364 18.2846 104.757 19.1588 105.457 19.7598C106.154 20.3609 107.105 20.6614 108.311 20.6614C109.262 20.6614 110.026 20.5066 110.603 20.1969C111.176 19.8919 111.578 19.6506 111.807 19.473C112.002 19.3182 112.225 19.2453 112.476 19.2544C112.671 19.2544 112.953 19.2977 113.323 19.3842C113.692 19.4661 114.057 19.6187 114.418 19.8418C114.677 19.9875 114.807 20.1878 114.807 20.4428C114.807 20.5885 114.781 20.7934 114.73 21.0575C114.7 21.2123 114.649 21.4377 114.577 21.7337C114.501 22.0296 114.407 22.3051 114.297 22.5601C114.233 22.683 114.134 22.7991 113.998 22.9084C113.79 23.0632 113.456 23.2681 112.998 23.5231C112.535 23.7826 111.905 24.008 111.106 24.1993C110.308 24.3951 109.298 24.493 108.075 24.493ZM104.247 13.7222H109.317C109.848 13.7222 110.113 13.4604 110.113 12.9368C110.113 12.1491 109.881 11.4843 109.419 10.9424C108.96 10.4051 108.268 10.1365 107.343 10.1365C106.336 10.1365 105.598 10.4803 105.126 11.1678C104.655 11.8599 104.362 12.7114 104.247 13.7222ZM127.989 6.58496C129.505 6.58496 130.751 6.94922 131.728 7.67774C132.709 8.40627 133.441 9.40571 133.925 10.6761C134.405 11.951 134.645 13.4103 134.645 15.054C134.645 16.8344 134.362 18.4348 133.798 19.8555C133.233 21.2806 132.401 22.4098 131.301 23.2431C130.202 24.0763 128.839 24.493 127.213 24.493C126.372 24.493 125.68 24.3905 125.136 24.1856C124.593 23.9807 124.158 23.7348 123.831 23.448C123.504 23.1657 123.247 22.9084 123.06 22.6762H123.003V29.7793C123.003 30.0479 122.95 30.2528 122.844 30.394C122.411 31.0087 121.774 31.6712 120.933 32.3815C120.789 32.4908 120.659 32.5454 120.545 32.5454C120.421 32.5454 120.292 32.4908 120.156 32.3815C119.71 32.0127 119.335 31.6666 119.029 31.3433C118.723 31.0246 118.46 30.7082 118.239 30.394C118.137 30.2528 118.086 30.0479 118.086 29.7793V9.2213C118.086 8.95266 118.137 8.74548 118.239 8.59978C118.46 8.29016 118.723 7.97371 119.029 7.65042C119.335 7.32714 119.71 6.98337 120.156 6.61911C120.292 6.50528 120.432 6.44836 120.576 6.44836C120.708 6.44836 120.848 6.50528 120.997 6.61911C121.43 6.98337 121.801 7.33397 122.111 7.67091C122.425 8.0033 122.701 8.34707 122.939 8.70223H123.016C123.19 8.47001 123.459 8.18771 123.824 7.85532C124.185 7.51838 124.701 7.22242 125.372 6.96743C126.039 6.71245 126.911 6.58496 127.989 6.58496ZM126.079 20.2379C127.2 20.2379 128.068 19.819 128.684 18.9812C129.299 18.1434 129.607 16.93 129.607 15.3409C129.607 12.3403 128.457 10.84 126.155 10.84C125.183 10.84 124.463 11.054 123.996 11.482C123.529 11.91 123.198 12.3608 123.003 12.8343V16.4542C123.003 17.5333 123.262 18.4348 123.78 19.1588C124.298 19.8782 125.064 20.2379 126.079 20.2379Z" fill="white"/>
</g>
</g>
</g>
</g>
<g clip-path="url(#clip8_85_4575)">
<g clip-path="url(#clip9_85_4575)">
<path d="M185.789 16.3573L176.059 10.3324V13.9407H174.242C173.228 13.9269 172.528 13.6079 171.641 12.9147C170.327 11.8859 168.946 9.90292 167.07 7.98759C165.218 6.0833 162.544 4.24668 158.95 4.27292H151.627V9.10613H158.951C161.824 9.12271 163.382 10.7425 165.48 13.1577C166.377 14.1976 167.319 15.3396 168.472 16.3656C166.675 17.9758 165.367 19.84 163.986 21.2002C162.463 22.693 161.151 23.5809 158.949 23.6044H151.629V28.4376H158.989C163.82 28.439 166.76 25.2366 168.799 22.8228C169.85 21.5869 170.778 20.4918 171.644 19.8013C172.527 19.1081 173.226 18.7905 174.241 18.7767H176.059V22.3864L185.789 16.3573Z" fill="black"/>
</g>
</g>
</g>
</g>
</mask>
<g mask="url(#mask0_85_4575)">
<path d="M185.789 0.0839233H0.192749V32.6264H185.789V0.0839233Z" fill="url(#paint0_linear_85_4575)"/>
</g>
<mask id="mask1_85_4575" style="mask-type:luminance" maskUnits="userSpaceOnUse" x="0" y="0" width="186" height="33">
<g clip-path="url(#clip10_85_4575)">
<g clip-path="url(#clip11_85_4575)">
<g clip-path="url(#clip12_85_4575)">
<g clip-path="url(#clip13_85_4575)">
<path d="M185.789 16.3573L176.059 10.3324V13.9407H174.242C173.228 13.9269 172.528 13.6079 171.641 12.9147C170.327 11.8859 168.946 9.90292 167.07 7.98759C165.218 6.0833 162.544 4.24668 158.95 4.27292H151.627V9.10613H158.951C161.824 9.12271 163.382 10.7425 165.48 13.1577C166.377 14.1976 167.319 15.3396 168.472 16.3656C166.675 17.9758 165.367 19.84 163.986 21.2002C162.463 22.693 161.151 23.5809 158.949 23.6044H151.629V28.4376H158.989C163.82 28.439 166.76 25.2366 168.799 22.8228C169.85 21.5869 170.778 20.4918 171.644 19.8013C172.527 19.1081 173.226 18.7905 174.241 18.7767H176.059V22.3864L185.789 16.3573Z" fill="white"/>
</g>
</g>
</g>
</g>
</mask>
<g mask="url(#mask1_85_4575)">
<path d="M185.789 0.0839233H0.192749V32.6264H185.789V0.0839233Z" fill="url(#paint1_linear_85_4575)"/>
</g>
</g>
</g>
<defs>
<linearGradient id="paint0_linear_85_4575" x1="0.192749" y1="18.8935" x2="184.113" y2="36.7253" gradientUnits="userSpaceOnUse">
<stop stop-color="#6EE2F5"/>
<stop offset="1" stop-color="#6454F0"/>
</linearGradient>
<linearGradient id="paint1_linear_85_4575" x1="0.192749" y1="18.8935" x2="184.113" y2="36.7253" gradientUnits="userSpaceOnUse">
<stop stop-color="#6EE2F5"/>
<stop offset="1" stop-color="#6454F0"/>
</linearGradient>
<clipPath id="clip0_85_4575">
<rect width="185.981" height="32.7103" fill="white"/>
</clipPath>
<clipPath id="clip1_85_4575">
<rect width="185.596" height="32.5425" fill="white" transform="translate(0.192749 0.0839233)"/>
</clipPath>
<clipPath id="clip2_85_4575">
<rect width="185.596" height="32.5425" fill="white" transform="translate(0.192749 0.0839233)"/>
</clipPath>
<clipPath id="clip3_85_4575">
<rect width="185.596" height="32.5425" fill="white" transform="translate(0.192749 0.0839233)"/>
</clipPath>
<clipPath id="clip4_85_4575">
<rect width="134.456" height="32.3806" fill="white" transform="translate(0.192749 0.164856)"/>
</clipPath>
<clipPath id="clip5_85_4575">
<rect width="134.456" height="32.3806" fill="white" transform="translate(0.192749 0.164856)"/>
</clipPath>
<clipPath id="clip6_85_4575">
<rect width="134.456" height="32.3806" fill="white" transform="translate(0.192749 0.164856)"/>
</clipPath>
<clipPath id="clip7_85_4575">
<rect width="134.456" height="32.3806" fill="white" transform="translate(0.192749 0.164856)"/>
</clipPath>
<clipPath id="clip8_85_4575">
<rect width="34.1613" height="24.165" fill="white" transform="translate(151.627 4.27264)"/>
</clipPath>
<clipPath id="clip9_85_4575">
<rect width="34.1613" height="24.165" fill="white" transform="translate(151.627 4.27264)"/>
</clipPath>
<clipPath id="clip10_85_4575">
<rect width="185.596" height="32.5425" fill="white" transform="translate(0.192749 0.0839233)"/>
</clipPath>
<clipPath id="clip11_85_4575">
<rect width="185.596" height="32.5425" fill="white" transform="translate(0.192749 0.0839233)"/>
</clipPath>
<clipPath id="clip12_85_4575">
<rect width="34.1613" height="24.165" fill="white" transform="translate(151.627 4.27264)"/>
</clipPath>
<clipPath id="clip13_85_4575">
<rect width="34.1613" height="24.165" fill="white" transform="translate(151.627 4.27264)"/>
</clipPath>
</defs>
</svg>
